/* XPM */
static char * xmlcopyeditor_xpm[] = {
"32 32 886 2",
"  	c #381206",
". 	c #632213",
"+ 	c #6B2113",
"@ 	c #751919",
"# 	c #741A18",
"$ 	c #6A2012",
"% 	c #6C1F12",
"& 	c #6D1E14",
"* 	c #6E2111",
"= 	c #6C1F16",
"- 	c #6D1E13",
"; 	c #6A2114",
"> 	c #702010",
", 	c #52180A",
"' 	c #02031A",
") 	c #031558",
"! 	c #02135B",
"~ 	c #021259",
"{ 	c #02125A",
"] 	c #02135A",
"^ 	c #00155D",
"/ 	c #041259",
"( 	c #04115A",
"_ 	c #001857",
": 	c #001B54",
"< 	c #00135A",
"[ 	c #071251",
"} 	c #020A24",
"| 	c #6E1F14",
"1 	c #C44737",
"2 	c #C24828",
"3 	c #C4492B",
"4 	c #C8442C",
"5 	c #BD4A2B",
"6 	c #C0482E",
"7 	c #CD4134",
"8 	c #CA4428",
"9 	c #C84330",
"0 	c #C9442D",
"a 	c #C34534",
"b 	c #C04735",
"c 	c #863732",
"d 	c #060838",
"e 	c #0D2E98",
"f 	c #0530A2",
"g 	c #032EA0",
"h 	c #032D9F",
"i 	c #022C9D",
"j 	c #022D9E",
"k 	c #022C9E",
"l 	c #042B9A",
"m 	c #06299E",
"n 	c #0927A3",
"o 	c #07299A",
"p 	c #032C99",
"q 	c #042BA9",
"r 	c #0B289A",
"s 	c #041459",
"t 	c #701D17",
"u 	c #C44532",
"v 	c #C9431C",
"w 	c #CA431D",
"x 	c #C94423",
"y 	c #C54524",
"z 	c #C94325",
"A 	c #C6432B",
"B 	c #C64527",
"C 	c #CB4121",
"D 	c #CA4222",
"E 	c #C54526",
"F 	c #82382A",
"G 	c #001041",
"H 	c #0334A4",
"I 	c #0334AB",
"J 	c #0231A9",
"K 	c #0130A8",
"L 	c #002DA6",
"M 	c #002CA4",
"N 	c #002BA3",
"O 	c #002CA2",
"P 	c #002EA1",
"Q 	c #002BA7",
"R 	c #0129A2",
"S 	c #002BA0",
"T 	c #002AB2",
"U 	c #012A9C",
"V 	c #041A47",
"W 	c #6F1D15",
"X 	c #C44634",
"Y 	c #CA4323",
"Z 	c #C74428",
"` 	c #C54230",
" .	c #C8412E",
"..	c #CD3F28",
"+.	c #BE4727",
"@.	c #BF452F",
"#.	c #BF4532",
"$.	c #C94627",
"%.	c #CF4526",
"&.	c #CC4927",
"*.	c #803421",
"=.	c #081644",
"-.	c #0B35A0",
";.	c #0D35AB",
">.	c #0931A9",
",.	c #0830A8",
"'.	c #062EA6",
").	c #042BA4",
"!.	c #0129A1",
"~.	c #002DA1",
"{.	c #002B9E",
"].	c #0329A4",
"^.	c #07279F",
"/.	c #1A3177",
"(.	c #00050C",
"_.	c #6A2414",
":.	c #CA4330",
"<.	c #CC4221",
"[.	c #C54525",
"}.	c #CC422E",
"|.	c #CA4328",
"1.	c #CB4124",
"2.	c #CE4125",
"3.	c #D24024",
"4.	c #CC442C",
"5.	c #D14628",
"6.	c #D3452E",
"7.	c #CF4A35",
"8.	c #772F28",
"9.	c #0A1851",
"0.	c #0E35AA",
"a.	c #0B39B1",
"b.	c #0936AF",
"c.	c #0936AE",
"d.	c #0734AC",
"e.	c #0532AA",
"f.	c #0330A8",
"g.	c #022FA7",
"h.	c #002DA5",
"i.	c #012BA1",
"j.	c #0227B0",
"k.	c #022AA7",
"l.	c #002C9D",
"m.	c #06299D",
"n.	c #172672",
"o.	c #181827",
"p.	c #68625D",
"q.	c #230B06",
"r.	c #A94737",
"s.	c #C5462D",
"t.	c #CB4026",
"u.	c #CC4225",
"v.	c #C1431E",
"w.	c #CA4629",
"x.	c #CD4331",
"y.	c #D84424",
"z.	c #CF492E",
"A.	c #D04C2E",
"B.	c #D34B38",
"C.	c #CD5041",
"D.	c #6A2F2B",
"E.	c #0A1D5B",
"F.	c #0F3BB4",
"G.	c #0E3EB8",
"H.	c #0C3CB4",
"I.	c #0A3AB2",
"J.	c #0737AF",
"K.	c #0535AD",
"L.	c #0434AC",
"M.	c #0132A9",
"N.	c #0030A1",
"O.	c #032BA9",
"P.	c #032AAC",
"Q.	c #022C99",
"R.	c #092B68",
"S.	c #0C131E",
"T.	c #D8CFC3",
"U.	c #7F7168",
"V.	c #403B34",
"W.	c #260000",
"X.	c #77251E",
"Y.	c #BE4842",
"Z.	c #C5422E",
"`.	c #C84422",
" +	c #D1432B",
".+	c #CE483A",
"++	c #D64731",
"@+	c #CD4D37",
"#+	c #D34F33",
"$+	c #DB4C3A",
"%+	c #D95141",
"&+	c #692C24",
"*+	c #0F215E",
"=+	c #183DB9",
"-+	c #1640C0",
";+	c #133DBE",
">+	c #113BBC",
",+	c #0D38B8",
"'+	c #0D37B8",
")+	c #0B35B5",
"!+	c #0A34B5",
"~+	c #0832B2",
"{+	c #0436AE",
"]+	c #0430A6",
"^+	c #072899",
"/+	c #0D2370",
"(+	c #0D1727",
"_+	c #D4D6C5",
":+	c #EBE3D8",
"<+	c #7B7070",
"[+	c #7D7673",
"}+	c #EADAD6",
"|+	c #534F48",
"1+	c #250000",
"2+	c #943626",
"3+	c #C5522E",
"4+	c #CB4926",
"5+	c #D54A32",
"6+	c #D54E34",
"7+	c #CE533A",
"8+	c #D75534",
"9+	c #E15137",
"0+	c #DC553E",
"a+	c #642B22",
"b+	c #0D2868",
"c+	c #1444C4",
"d+	c #1744BE",
"e+	c #1542B9",
"f+	c #1441B8",
"g+	c #113EB6",
"h+	c #0F3DB4",
"i+	c #0D3BB1",
"j+	c #0B3AAF",
"k+	c #0937AD",
"l+	c #0936A6",
"m+	c #0E36AA",
"n+	c #082161",
"o+	c #181A26",
"p+	c #DFD2D2",
"q+	c #E6DFCA",
"r+	c #E5E5C8",
"s+	c #7F7679",
"t+	c #7A716C",
"u+	c #F1E6E4",
"v+	c #EEE9E4",
"w+	c #BEB8B1",
"x+	c #2D1612",
"y+	c #4C160D",
"z+	c #B14E3D",
"A+	c #D1513E",
"B+	c #D35231",
"C+	c #E15440",
"D+	c #DA553D",
"E+	c #DE5A3B",
"F+	c #DE5E46",
"G+	c #572520",
"H+	c #16316F",
"I+	c #1743C0",
"J+	c #1E48C6",
"K+	c #1B45BE",
"L+	c #1B44BE",
"M+	c #1542BE",
"N+	c #1141B7",
"O+	c #1244B4",
"P+	c #0E3DB0",
"Q+	c #0E39B2",
"R+	c #1636AF",
"S+	c #0B215E",
"T+	c #1C2427",
"U+	c #E1D9D0",
"V+	c #E8DED6",
"W+	c #E7E1CF",
"X+	c #EAE5D1",
"Y+	c #7D736C",
"Z+	c #807770",
"`+	c #ECE2DC",
" @	c #EDE4DF",
".@	c #E7E2DD",
"+@	c #F5F0E9",
"@@	c #928178",
"#@	c #290000",
"$@	c #76331F",
"%@	c #D45E3C",
"&@	c #E6533C",
"*@	c #E25A41",
"=@	c #DB6143",
"-@	c #D86656",
";@	c #53222E",
">@	c #1D337F",
",@	c #184CC8",
"'@	c #164CCA",
")@	c #1A4DC9",
"!@	c #1745C0",
"~@	c #1945C6",
"{@	c #1544C6",
"]@	c #1242C0",
"^@	c #133FBA",
"/@	c #1841B6",
"(@	c #0A2062",
"_@	c #1F2836",
":@	c #EBE7D6",
"<@	c #EEE1D7",
"[@	c #E9DEDC",
"}@	c #E5E0D6",
"|@	c #E9E4DA",
"1@	c #7C7275",
"2@	c #7B776F",
"3@	c #EFE6DD",
"4@	c #ECDED7",
"5@	c #ECE1DD",
"6@	c #EAE7E3",
"7@	c #F0F0E9",
"8@	c #E8E7DB",
"9@	c #5C554B",
"0@	c #1E0801",
"a@	c #A74846",
"b@	c #EB6B5D",
"c@	c #CD5E3A",
"d@	c #9B4929",
"e@	c #1C0404",
"f@	c #12245D",
"g@	c #304CB8",
"h@	c #224FCB",
"i@	c #1D4CCB",
"j@	c #1C4ECA",
"k@	c #164CC5",
"l@	c #1549C5",
"m@	c #1B46C2",
"n@	c #2345AE",
"o@	c #0A206B",
"p@	c #2F333C",
"q@	c #F1EFDB",
"r@	c #F6EAD3",
"s@	c #F2E1DA",
"t@	c #EBE0DE",
"u@	c #E4E2D4",
"v@	c #E7E5D8",
"w@	c #7C7375",
"x@	c #787872",
"y@	c #ECE4DD",
"z@	c #EFE0D8",
"A@	c #F4E3DC",
"B@	c #F3E6E3",
"C@	c #F2EAE8",
"D@	c #F6EFEC",
"E@	c #FFFCF7",
"F@	c #C9C9C2",
"G@	c #321D1B",
"H@	c #120000",
"I@	c #2B2013",
"J@	c #7D7068",
"K@	c #A7A49F",
"L@	c #71797D",
"M@	c #080F1F",
"N@	c #102357",
"O@	c #2B459D",
"P@	c #2B52C3",
"Q@	c #1A4EC4",
"R@	c #1A4CCA",
"S@	c #274ABE",
"T@	c #0C1D58",
"U@	c #3B4039",
"V@	c #FBF6E7",
"W@	c #FBF1DD",
"X@	c #F5E6D7",
"Y@	c #F5E7E1",
"Z@	c #EAE4D9",
"`@	c #E4E3CB",
" #	c #E7E5CE",
".#	c #7C756D",
"+#	c #7B7775",
"@#	c #EBE4DE",
"##	c #ECE2D8",
"$#	c #F2E6DB",
"%#	c #F6E9E1",
"&#	c #F9EBE7",
"*#	c #FDF0EE",
"=#	c #FEF3F0",
"-#	c #FFFBF9",
";#	c #6B5E5C",
">#	c #988D86",
",#	c #FFFFFB",
"'#	c #FFFAF2",
")#	c #FBFDF3",
"!#	c #FDFFF3",
"~#	c #FFF9F0",
"{#	c #A19DA5",
"]#	c #222A2E",
"^#	c #011738",
"/#	c #1C3990",
"(#	c #3250B4",
"_#	c #0A1C57",
":#	c #4A4E56",
"<#	c #FFFCEF",
"[#	c #FDF4EA",
"}#	c #FBF2E9",
"|#	c #F7EDE5",
"1#	c #F2E9E1",
"2#	c #ECE8D6",
"3#	c #E7E6C8",
"4#	c #E9E4D0",
"5#	c #7D736E",
"6#	c #7F7377",
"7#	c #ECE5E1",
"8#	c #EBE6DA",
"9#	c #EDEBDC",
"0#	c #F3EFE3",
"a#	c #F8F3E8",
"b#	c #FAF2E9",
"c#	c #FFF9EF",
"d#	c #EAE1DF",
"e#	c #12130A",
"f#	c #FFFFF6",
"g#	c #FDFCED",
"h#	c #FFF9EE",
"i#	c #FCFEF0",
"j#	c #F8FEEA",
"k#	c #FCFCE8",
"l#	c #FEF8F5",
"m#	c #FFFFF9",
"n#	c #C7C7BF",
"o#	c #4B5056",
"p#	c #00000A",
"q#	c #4F535B",
"r#	c #FFFEFA",
"s#	c #FEF7EA",
"t#	c #FDF6EA",
"u#	c #FAF4E9",
"v#	c #F5F0E6",
"w#	c #F2ECE0",
"x#	c #EFEAD6",
"y#	c #ECE5D2",
"z#	c #EBE2DA",
"A#	c #7C7278",
"B#	c #7F7274",
"C#	c #EEE6E0",
"D#	c #ECE8DD",
"E#	c #F0ECE0",
"F#	c #F7F1E7",
"G#	c #F8F3EA",
"H#	c #FEFBF0",
"I#	c #FFFDF0",
"J#	c #5F5651",
"K#	c #A4A59B",
"L#	c #F9FEF1",
"M#	c #FBFCEB",
"N#	c #FFFAEC",
"O#	c #FFF7E7",
"P#	c #FFF9E7",
"Q#	c #FFFEEA",
"R#	c #F9F8EC",
"S#	c #FFFFF3",
"T#	c #FDF7EC",
"U#	c #FFFFF7",
"V#	c #6B655A",
"W#	c #BCB6A9",
"X#	c #FEF8E7",
"Y#	c #FBF5DF",
"Z#	c #FDF7E4",
"`#	c #FDF6E8",
" $	c #F9F2E6",
".$	c #F5EEDF",
"+$	c #F3EAD9",
"@$	c #EFE5DA",
"#$	c #ECE3DF",
"$$	c #7A7474",
"%$	c #7D7471",
"&$	c #EEE7DF",
"*$	c #F0E8DE",
"=$	c #F8EBE4",
"-$	c #FBEBE8",
";$	c #FEF2F1",
">$	c #FEF3EF",
",$	c #E4E0D7",
"'$	c #181707",
")$	c #FFFFF5",
"!$	c #FDFAE9",
"~$	c #FBFAE8",
"{$	c #FFFBED",
"]$	c #FFF6EF",
"^$	c #FCFDF3",
"/$	c #FDFFE9",
"($	c #FCFBEF",
"_$	c #FEFCEC",
":$	c #949283",
"<$	c #959288",
"[$	c #FCF3EF",
"}$	c #FFF2ED",
"|$	c #FFF4E4",
"1$	c #FFF6E8",
"2$	c #FCF2E8",
"3$	c #F9EEE1",
"4$	c #F7EADD",
"5$	c #F2E7DC",
"6$	c #ECE6D9",
"7$	c #787767",
"8$	c #F0E9E1",
"9$	c #F4EAE4",
"0$	c #FAEDE7",
"a$	c #FCEFEC",
"b$	c #FEF5F1",
"c$	c #FFFDF7",
"d$	c #5D5851",
"e$	c #A7A296",
"f$	c #FEFAEE",
"g$	c #FEFBEE",
"h$	c #FFFBEC",
"i$	c #FFFCEE",
"j$	c #FFFDEF",
"k$	c #FFFCED",
"l$	c #FFFAEE",
"m$	c #B7B4AA",
"n$	c #726B63",
"o$	c #FFF6EC",
"p$	c #FDF6E9",
"q$	c #FDF8E7",
"r$	c #FDF7E9",
"s$	c #FDF5EA",
"t$	c #F9F1E6",
"u$	c #F5ECE0",
"v$	c #F1E9DD",
"w$	c #EEE7DE",
"x$	c #7C7670",
"y$	c #7A766D",
"z$	c #EDE7DE",
"A$	c #F0E7E0",
"B$	c #F5EAE4",
"C$	c #F8EDE9",
"D$	c #E1DDD7",
"E$	c #19140D",
"F$	c #FFFDEE",
"G$	c #FDFBEC",
"H$	c #FEFCED",
"I$	c #FFFCEC",
"J$	c #FFFCEB",
"K$	c #FDFCEB",
"L$	c #FDFCEE",
"M$	c #E3DFD5",
"N$	c #403931",
"O$	c #FFFDF3",
"P$	c #FCF3E7",
"Q$	c #FCF5E5",
"R$	c #FDF5E8",
"S$	c #FBF4E9",
"T$	c #F7EDE1",
"U$	c #F3ECDC",
"V$	c #EFE7DA",
"W$	c #EBE5DB",
"X$	c #7B746D",
"Y$	c #7D7670",
"Z$	c #EEE5E0",
"`$	c #F3E8E4",
" %	c #F6EEE6",
".%	c #FCF5ED",
"+%	c #5B574E",
"@%	c #A19F94",
"#%	c #FDFBE9",
"$%	c #FDFBEA",
"%%	c #FFFEED",
"&%	c #FEFBEC",
"*%	c #FFFBEA",
"=%	c #FDFDEA",
"-%	c #FDFBED",
";%	c #170F09",
">%	c #FEF7EB",
",%	c #FEF7E7",
"'%	c #FEF3E8",
")%	c #FBF1E7",
"!%	c #F5EBDF",
"~%	c #F3E9DA",
"{%	c #EDE6D7",
"]%	c #EBE4D9",
"^%	c #7A756E",
"/%	c #ECE3DE",
"(%	c #F0E7E2",
"_%	c #F2EBE3",
":%	c #DBD7CE",
"<%	c #17140B",
"[%	c #FFFEF3",
"}%	c #FEFBE8",
"|%	c #FFFDEA",
"1%	c #FFFCEA",
"2%	c #FFFBE9",
"3%	c #FEFDE9",
"4%	c #19140E",
"5%	c #FFFDF4",
"6%	c #FCF4E9",
"7%	c #FFF5E7",
"8%	c #FBF1E5",
"9%	c #FAECE4",
"0%	c #F6EADE",
"a%	c #EFE6D6",
"b%	c #EAE3D2",
"c%	c #E9E3D6",
"d%	c #7E7771",
"e%	c #EDE7E0",
"f%	c #E9E2DC",
"g%	c #EDE6E0",
"h%	c #F5F1E8",
"i%	c #57544B",
"j%	c #99988F",
"k%	c #F5F5EB",
"l%	c #FCF9E6",
"m%	c #FEFCE9",
"n%	c #FFFDEC",
"o%	c #FEFBEA",
"p%	c #FCF9E9",
"q%	c #FCFBE9",
"r%	c #FEFDEF",
"s%	c #FFFFFF",
"t%	c #181310",
"u%	c #8F8880",
"v%	c #FFFFF4",
"w%	c #F9EFE3",
"x%	c #F6ECE2",
"y%	c #F4E9DE",
"z%	c #EEE5D6",
"A%	c #E8E1D0",
"B%	c #E9E3D7",
"C%	c #79766D",
"D%	c #7C7371",
"E%	c #EDE6E3",
"F%	c #EDE8E2",
"G%	c #E4DFD9",
"H%	c #848076",
"I%	c #000000",
"J%	c #C8C5B9",
"K%	c #FEFFF2",
"L%	c #FAF7E7",
"M%	c #FEFBEB",
"N%	c #FBF8E8",
"O%	c #FEFDEC",
"P%	c #625F54",
"Q%	c #57544D",
"R%	c #615D53",
"S%	c #191308",
"T%	c #A19C8E",
"U%	c #F3EAE1",
"V%	c #EFE6DC",
"W%	c #EAE3D3",
"X%	c #E6DFCF",
"Y%	c #EBE5D9",
"Z%	c #7B746C",
"`%	c #85807C",
" &	c #B8B5B0",
".&	c #4D4A43",
"+&	c #0C0902",
"@&	c #6C6961",
"#&	c #949188",
"$&	c #2F2D21",
"%&	c #1F1E12",
"&&	c #9A978A",
"*&	c #FDF9ED",
"=&	c #FDF9EB",
"-&	c #FDFBEB",
";&	c #FFFFF2",
">&	c #626052",
",&	c #5C5951",
"'&	c #FFFFFD",
")&	c #FFFCF1",
"!&	c #E3E0D1",
"~&	c #555448",
"{&	c #141107",
"]&	c #99948B",
"^&	c #F3ECE2",
"/&	c #EAE2D5",
"(&	c #E7DFD2",
"_&	c #EAE3D9",
":&	c #7B746E",
"<&	c #010000",
"[&	c #312E28",
"}&	c #9B9891",
"|&	c #E4E1DA",
"1&	c #E0DED3",
"2&	c #E4E2D7",
"3&	c #F3EFE4",
"4&	c #CFCBC0",
"5&	c #69655B",
"6&	c #0F0B00",
"7&	c #615D54",
"8&	c #D9D7CB",
"9&	c #FFFFF8",
"0&	c #FEFCEB",
"a&	c #FCFAEC",
"b&	c #605E50",
"c&	c #5D5B4E",
"d&	c #FAF8EE",
"e&	c #F9F8EA",
"f&	c #F8F5E6",
"g&	c #F5F7EA",
"h&	c #D5D5CA",
"i&	c #524F47",
"j&	c #141006",
"k&	c #938E81",
"l&	c #E8E2D8",
"m&	c #79736E",
"n&	c #68655C",
"o&	c #E9E7DB",
"p&	c #DDDBCF",
"q&	c #DFDDCF",
"r&	c #E0DCCF",
"s&	c #E2DFD1",
"t&	c #E7E3D7",
"u&	c #ECE8DC",
"v&	c #F2EEE3",
"w&	c #F0EEE2",
"x&	c #99968D",
"y&	c #26231C",
"z&	c #2F2C24",
"A&	c #A6A59C",
"B&	c #FDFDF0",
"C&	c #FFFFFA",
"D&	c #5D5C52",
"E&	c #595A4E",
"F&	c #FAF8EA",
"G&	c #F7F5E7",
"H&	c #F5F3E4",
"I&	c #F3F0E1",
"J&	c #F1EEE2",
"K&	c #F0EEE0",
"L&	c #EEEDDE",
"M&	c #CCCABD",
"N&	c #504E43",
"O&	c #121109",
"P&	c #94938B",
"Q&	c #7B7974",
"R&	c #777569",
"S&	c #E2E0D4",
"T&	c #DFDDCE",
"U&	c #E0DCCE",
"V&	c #E2DFD0",
"W&	c #E5E2D3",
"X&	c #E8E4D8",
"Y&	c #E9E7D7",
"Z&	c #EFEBE0",
"`&	c #F9F7EC",
" *	c #C9C7BD",
".*	c #5A574E",
"+*	c #0B0900",
"@*	c #7B796D",
"#*	c #57534B",
"$*	c #5B594C",
"%*	c #F6F4E5",
"&*	c #F4F1E0",
"**	c #F2EFE0",
"=*	c #F0EDDE",
"-*	c #EFECDD",
";*	c #E8E5D6",
">*	c #E9E6D7",
",*	c #E2E0D1",
"'*	c #E9E7DA",
")*	c #CDCAC0",
"!*	c #514D47",
"~*	c #78766A",
"{*	c #E2E0D3",
"]*	c #DDDBCD",
"^*	c #E0DFCD",
"/*	c #E0DCCB",
"(*	c #E0DDCB",
"_*	c #E3E1D1",
":*	c #E5DFCF",
"<*	c #ECE6D8",
"[*	c #E9E7D8",
"}*	c #EDE9DD",
"|*	c #F4F0E4",
"1*	c #EFEDE0",
"2*	c #6F6D62",
"3*	c #25231D",
"4*	c #F5F1E4",
"5*	c #F5F2E3",
"6*	c #F2EFDE",
"7*	c #F0EDDC",
"8*	c #F0EADA",
"9*	c #EEE8DA",
"0*	c #EAE4D6",
"a*	c #EDE7D9",
"b*	c #E4E2D0",
"c*	c #E4E1D3",
"d*	c #E5E0D5",
"e*	c #EAE7DE",
"f*	c #6E6B64",
"g*	c #757366",
"h*	c #E1DFD3",
"i*	c #DEDECB",
"j*	c #DFDCCB",
"k*	c #E0DDCE",
"l*	c #E5DECE",
"m*	c #E6E0D0",
"n*	c #E7E1D0",
"o*	c #EBE5D7",
"p*	c #EAE7D8",
"q*	c #ACA89B",
"r*	c #656157",
"s*	c #F3F0E2",
"t*	c #F0EDDD",
"u*	c #F1EBDB",
"v*	c #EEE8D8",
"w*	c #E9E3D5",
"x*	c #E8E2D5",
"y*	c #E7E1D1",
"z*	c #E8E1D1",
"A*	c #E4E1D2",
"B*	c #E5E1D5",
"C*	c #E8E4D9",
"D*	c #79756C",
"E*	c #E1DFD2",
"F*	c #E0DECF",
"G*	c #E0DDCC",
"H*	c #E2DBCC",
"I*	c #E3DDCC",
"J*	c #E6E0CF",
"K*	c #938F83",
"L*	c #7D796E",
"M*	c #EEEBDC",
"N*	c #ECE9D8",
"O*	c #EDE6D6",
"P*	c #E8E2D4",
"Q*	c #E7E1D3",
"R*	c #E5E3D3",
"S*	c #E4E0D5",
"T*	c #E7E3D8",
"U*	c #7B776B",
"V*	c #767468",
"W*	c #DFDDD1",
"X*	c #E0DED2",
"Y*	c #DEDCCD",
"Z*	c #E0DCD0",
"`*	c #E1DBCE",
" =	c #DFDDCD",
".=	c #DFDCCD",
"+=	c #E6E2D6",
"@=	c #E5E3D7",
"#=	c #919084",
"$=	c #EAE8DB",
"%=	c #E9E5D8",
"&=	c #E6E4D4",
"*=	c #E6E0D4",
"==	c #E6E0D5",
"-=	c #E7E0D5",
";=	c #E7E0D4",
">=	c #E4E2D2",
",=	c #E7E5D9",
"'=	c #79766E",
")=	c #78756C",
"!=	c #E5E2D8",
"~=	c #E3E1D4",
"{=	c #E3DED3",
"]=	c #E3DFD4",
"^=	c #E2DED3",
"/=	c #5B5850",
"(=	c #A5A397",
"_=	c #EDEBDF",
":=	c #E7E5D7",
"<=	c #E6E4D7",
"[=	c #E8E3D9",
"}=	c #E8E4DB",
"|=	c #E7E4D9",
"1=	c #E7E4D7",
"2=	c #E8E3D8",
"3=	c #E6E5D8",
"4=	c #E8E6D9",
"5=	c #E6E4D8",
"6=	c #EAE8DC",
"7=	c #393630",
"8=	c #79756D",
"9=	c #747366",
"0=	c #777367",
"a=	c #777368",
"b=	c #77736A",
"c=	c #76736A",
"d=	c #767469",
"e=	c #727369",
"f=	c #75766E",
"g=	c #1D1D19",
"h=	c #5B5B52",
"i=	c #747468",
"j=	c #78786C",
"k=	c #79776B",
"l=	c #78776A",
"m=	c #78756D",
"n=	c #7A766B",
"o=	c #79776A",
"p=	c #7A786B",
"q=	c #76766A",
"r=	c #78786F",
"s=	c #38392F",
"  . + @ # $ % & * = - ; > , ' ) ! ~ { { { { ] ] ^ / ( _ : < [ } ",
"| 1 2 3 4 5 6 7 8 9 0 a b c d e f g h i h h j k l m n o p q r s ",
"t u v w x y z A B A C D E F G H I J K L M N N M O P Q R S T U V ",
"W X Y Z `  ...+.@.#.$.%.&.*.=.-.;.>.,.'.'.).!.!.N M ~.{.].^./.(.",
"_.:.<.[.}.|.1.2.3.4.5.6.7.8.9.0.a.b.c.d.e.f.g.h.i.j.k.l.m.n.o.p.",
"q.r.s.t.u.v.w.x.y.z.A.B.C.D.E.F.G.H.I.J.J.K.L.M.N.O.P.Q.R.S.T.U.",
"V.W.X.Y.Z.`. +.+++@+#+$+%+&+*+=+-+;+>+,+'+)+!+~+{+]+^+/+(+_+:+<+",
"[+}+|+1+2+3+4+5+6+7+8+9+0+a+b+c+d+e+f+g+h+i+j+k+l+m+n+o+p+q+r+s+",
"t+u+v+w+x+y+z+A+B+C+D+E+F+G+H+I+J+K+L+M+N+O+P+Q+R+S+T+U+V+W+X+Y+",
"Z+`+ @.@+@@@#@$@%@&@*@=@-@;@>@,@'@)@!@~@{@]@^@/@(@_@:@<@[@}@|@1@",
"2@3@4@5@6@7@8@9@0@a@b@c@d@e@f@g@h@i@j@k@l@m@n@o@p@q@r@s@t@u@v@w@",
"x@y@z@A@B@C@D@E@F@G@H@I@J@K@L@M@N@O@P@Q@R@S@T@U@V@W@X@Y@Z@`@ #.#",
"+#@###$#%#&#*#=#-#;#>#,#'#)#!#~#{#]#^#/#(#_#:#<#[#}#|#1#2#3#4#5#",
"6#7#8#9#0#a#b#c#d#e#f#g#h#i#j#k#l#m#n#o#p#q#r#s#t#u#v#w#x#y#z#A#",
"B#C#D#E#F#G#H#I#J#K#L#M#N#O#P#Q#R#S#T#U#V#W#X#Y#Z#`# $.$+$@$#$$$",
"%$&$*$=$-$;$>$,$'$)$N#!$~${$]$^$/$g#($_$:$<$[$}$|$1$2$3$4$5$6$7$",
"2@8$9$0$a$b$c$d$e$<#f$f$g$h$i$i$j$k$_$l$m$n$o$p$q$r$s$t$u$v$w$x$",
"y$z$A$B$C$[$D$E$f#F$G$H$I${$h$F$k$J$K$L$M$N$O$P$Q$R$S$T$U$V$W$X$",
"Y$Z$Z$`$ %.%+%@%#%$%!$%%{$&%k$k$k$*%=%-%,#;%U#>%,%'%)%!%~%{%]%^%",
"Y$ @/%(%_%:%<%[%#%}%|%!$*%&%&%k$1%2%3%-%,#4%5%6%7%8%9%0%a%b%c%y$",
"d%e%f%g%h%i%j%k%l%m%}%n%o%1%k${$p%m%q%r%s%t%u%v%V@w%x%y%z%A%B%C%",
"D%E%F%G%H%I%J%K%L%M%!$$%*%J$1%*%H$N%O%U#P%Q%R%S%T%T#U%V%W%X%Y%Z%",
"`% &.&+&@&#&$&%&&&*&v%=&k$1%1%1%H$-&;&>&,&'&)&!&~&{&]&^&/&(&_&:&",
"<&[&}&|&1&2&3&4&5&6&7&8&9&0&M%o%a&9&b&c&m#d&e&f&g&h&i&j&k&v$l&m&",
"n&o&p&q&r&s&t&u&v&w&x&y&z&A&)$B&C&D&E&f#F&G&H&I&J&K&L&M&N&O&P&Q&",
"R&S&q&T&U&V&W&X&Y&u&Z&`& *.*+*@*#*$*v%%*H&&***=*-*;*>*,*'*)*!*I%",
"~*{*]*^*/*(*V&_*:*<*[*u&}*|*1*2*3*m#4*5*6*7*8*9*0*a*b*W&c*d*e*f*",
"g*h*T&i*j*j*k*k*l*m*n*o*p*>*-*q*r*|*s*t*u*v*<*w*x*:*y*z*A*B*C*D*",
"~*E*F*T&G*G*k*k*H*I*:*J*A*>*p*K*L*E#M*N*O*0*P*Q*Q*Q*y*y*R*S*T*U*",
"V*W*X*Y*k*k*Z*Z*`*`* =.=V&+=@=R&#=$=%=>*&=B**===-=;=>=>=A*t&,='=",
")=!=X*~={={=]=]=^=^=^={*E*X*e*/=(=_=:=<=v@[=X&}=|=1=2=3=4=5=6=C%",
"7=8=9=R&0=a=a=a=b=c=V*d=V*e=f=g=h=i=j=k=k=l=m=y$n=k=o=o=p=q=r=s="};
