/* XPM */
#ifdef __WXMSW__
static char * appicon_xpm[] = {
#else
static const char * appicon_xpm[] = {
#endif

"16 16 238 2",
"  	c #742719",
". 	c #9A3320",
"+ 	c #993321",
"@ 	c #9A3222",
"# 	c #9B3220",
"$ 	c #993322",
"% 	c #802E21",
"& 	c #081551",
"* 	c #04217E",
"= 	c #02207D",
"- 	c #03207D",
"; 	c #041F7C",
"> 	c #061F7C",
", 	c #02227C",
"' 	c #06175B",
") 	c #9A3225",
"! 	c #C94422",
"~ 	c #C74329",
"{ 	c #C74328",
"] 	c #C3452D",
"^ 	c #CC4425",
"/ 	c #A33E27",
"( 	c #092573",
"_ 	c #0733AB",
": 	c #042FA8",
"< 	c #022CA5",
"[ 	c #012BA3",
"} 	c #002CA3",
"| 	c #0329A5",
"1 	c #081F5B",
"2 	c #7F2E20",
"3 	c #C84427",
"4 	c #C94327",
"5 	c #CC4329",
"6 	c #D1452A",
"7 	c #D24930",
"8 	c #9F3E33",
"9 	c #0E2A82",
"0 	c #0C3BB3",
"a 	c #0937AF",
"b 	c #0634AC",
"c 	c #0231A9",
"d 	c #022CA7",
"e 	c #022BA2",
"f 	c #102769",
"g 	c #736D6B",
"h 	c #75635F",
"i 	c #70332D",
"j 	c #B74329",
"k 	c #D04830",
"l 	c #D24E36",
"m 	c #DA5137",
"n 	c #A04033",
"o 	c #14338F",
"p 	c #1641BE",
"q 	c #113DB9",
"r 	c #0D39B5",
"s 	c #0A36B1",
"t 	c #0834A8",
"u 	c #112668",
"v 	c #A6A5A1",
"w 	c #B3ACA3",
"x 	c #B6ADA8",
"y 	c #DCD6D0",
"z 	c #846A62",
"A 	c #8B3828",
"B 	c #D9553A",
"C 	c #DE5B3F",
"D 	c #98443D",
"E 	c #1A3D9C",
"F 	c #1A4AC6",
"G 	c #1945C1",
"H 	c #1343BD",
"I 	c #123EB4",
"J 	c #172C6D",
"K 	c #B2AEA7",
"L 	c #E8E0D6",
"M 	c #B4AEA7",
"N 	c #EFE1DB",
"O 	c #F0EAE5",
"P 	c #CDC7BF",
"Q 	c #75514C",
"R 	c #813E2D",
"S 	c #78594F",
"T 	c #334270",
"U 	c #2041A2",
"V 	c #1E4EC4",
"W 	c #1D49C2",
"X 	c #21356F",
"Y 	c #C2BFB5",
"Z 	c #F5E7DA",
"` 	c #E8E3D6",
" .	c #B2ADA3",
"..	c #B5ADAB",
"+.	c #EEE7DB",
"@.	c #F7EEE5",
"#.	c #FDF4EE",
"$.	c #9D9693",
"%.	c #E1DFD3",
"&.	c #FDFBF1",
"*.	c #FAF8EA",
"=.	c #B3B1B2",
"-.	c #4E5C7A",
";.	c #253361",
">.	c #D0CDC8",
",.	c #FCF4EA",
"'.	c #F4EDE3",
").	c #ECE8D3",
"!.	c #B4ABA4",
"~.	c #B7ADAA",
"{.	c #F2EAE0",
"].	c #FAF1EB",
"^.	c #F4EFE6",
"/.	c #8E8B7F",
"(.	c #FCFCED",
"_.	c #FEFAEB",
":.	c #FEFBED",
"<.	c #FDFDEE",
"[.	c #FEFBEE",
"}.	c #938F83",
"|.	c #FDF5E9",
"1.	c #FEF6E7",
"2.	c #FAF1E4",
"3.	c #F3E9DC",
"4.	c #B3AEA6",
"5.	c #B5B0A7",
"6.	c #F5EAE4",
"7.	c #FCF2EE",
"8.	c #9C9690",
"9.	c #E6E4D6",
"0.	c #FFFCED",
"a.	c #FFFCEE",
"b.	c #FFFDEE",
"c.	c #FEFCEE",
"d.	c #969087",
"e.	c #FDF5EA",
"f.	c #FDF7E8",
"g.	c #FBF2E7",
"h.	c #F3EADD",
"i.	c #B5AEA6",
"j.	c #B6AEA8",
"k.	c #F0E6E2",
"l.	c #ECE5DD",
"m.	c #8A877D",
"n.	c #FEFBEA",
"o.	c #FEFCEB",
"p.	c #FFFCEC",
"q.	c #FFFCEB",
"r.	c #FEFCEC",
"s.	c #96928A",
"t.	c #FBF4EA",
"u.	c #FEF5E7",
"v.	c #F8EDE2",
"w.	c #EFE7D7",
"x.	c #B6AEAA",
"y.	c #E6E0DA",
"z.	c #76736B",
"A.	c #CDCCC1",
"B.	c #FDFAE9",
"C.	c #FDFBEA",
"D.	c #FDFCEC",
"E.	c #7C7971",
"F.	c #888278",
"G.	c #E1DACD",
"H.	c #F3EADF",
"I.	c #EAE3D3",
"J.	c #B3ADA3",
"K.	c #5F5C57",
"L.	c #7B7871",
"M.	c #B0ADA3",
"N.	c #8A877C",
"O.	c #888479",
"P.	c #CDCABE",
"Q.	c #FDFBED",
"R.	c #8F8D7F",
"S.	c #D6D4CA",
"T.	c #F1EEE1",
"U.	c #929186",
"V.	c #817D73",
"W.	c #D1CABE",
"X.	c #B2ACA4",
"Y.	c #A8A69A",
"Z.	c #DFDDCF",
"`.	c #E1DED0",
" +	c #E8E5D8",
".+	c #EAE7DA",
"++	c #ACA99F",
"@+	c #828077",
"#+	c #A4A398",
"$+	c #89887E",
"%+	c #D3D2C5",
"&+	c #F7F5E6",
"*+	c #F3F0E1",
"=+	c #EEECDE",
"-+	c #DEDCCD",
";+	c #8A887E",
">+	c #5A5852",
",+	c #ACAA9E",
"'+	c #DFDDCD",
")+	c #E0DDCC",
"!+	c #E2DFD0",
"~+	c #E7E1D2",
"{+	c #EAE6D7",
"]+	c #EDE9DC",
"^+	c #B9B6A9",
"/+	c #A2A095",
"(+	c #F4F0E2",
"_+	c #F1ECDC",
":+	c #EDE7D9",
"<+	c #EAE4D5",
"[+	c #E6E2D2",
"}+	c #E5E1D4",
"|+	c #ADA9A0",
"1+	c #E0DECF",
"2+	c #E0DECE",
"3+	c #E0DDD0",
"4+	c #E2DCCE",
"5+	c #E3DECF",
"6+	c #E6E2D4",
"7+	c #B7B4A7",
"8+	c #BBB8AC",
"9+	c #EBE8D9",
"0+	c #E9E4D6",
"a+	c #E7E1D4",
"b+	c #E6E2D5",
"c+	c #B1AEA3",
"d+	c #848178",
"e+	c #ADA99E",
"f+	c #ADA99F",
"g+	c #ADAA9E",
"h+	c #ABAA9E",
"i+	c #78776F",
"j+	c #97968A",
"k+	c #B0AEA2",
"l+	c #B1AEA2",
"m+	c #B1ADA4",
"n+	c #B0AEA1",
"o+	c #86847A",
"  . + @ # $ % & * = - = ; > , ' ",
") ! ~ { ] ^ / ( _ : < [ } [ | 1 ",
"2 3 4 5 6 7 8 9 0 a b c d e f g ",
"h i j k l m n o p q r s t u v w ",
"x y z A B C D E F G H I J K L w ",
"M N O P Q R S T U V W X Y Z `  .",
"..+.@.#.$.%.&.*.=.-.;.>.,.'.).!.",
"~.{.].^./.(._.:.<.[.}.|.1.2.3.4.",
"5.6.7.8.9.[.0.a.b.c.d.e.f.g.h.i.",
"j.k.l.m.n.o.p.0.q.r.s.t.u.v.w. .",
"x.y.z.A.B.o.q.p.C.D.E.F.G.H.I.J.",
"K.L.M.N.O.P.p.q.Q.R.S.T.U.V.W.X.",
"Y.Z.`. +.+++@+#+$+%+&+*+=+-+;+>+",
",+'+)+!+~+{+]+^+/+(+_+:+<+[+}+|+",
",+1+2+3+4+5+6+7+8+9+0+a+a+[+b+c+",
"d+,+e+e+f+g+h+i+j+k+l+m+l+n+k+o+"};
